<svg width="45" height="45" viewBox="0 0 45 45" fill="none" xmlns="http://www.w3.org/2000/svg"><path d="M44.2269 21.5221C44.136 21.407 41.9557 18.6718 38.2176 15.9256C33.2225 12.2557 27.7874 10.3159 22.4999 10.3159C17.2125 10.3159 11.7774 12.2557 6.78209 15.9256C3.04413 18.6717 0.863757 21.407 0.77283 21.5221L0 22.4995L0.772929 23.4771C0.863856 23.5921 3.04423 26.3274 6.78219 29.0737C11.7775 32.7435 17.2126 34.6833 22.5 34.6833C27.7874 34.6833 33.2225 32.7435 38.2176 29.0737C41.9557 26.3274 44.136 23.5921 44.2269 23.4771L45 22.4995L44.2269 21.5221ZM22.4999 31.0349C17.7935 31.0349 13.9645 27.206 13.9645 22.4995C13.9645 21.7622 14.0585 21.0464 14.2351 20.3634L12.2865 20.0355C12.0956 20.826 11.9943 21.6512 11.9943 22.4995C11.9943 25.5396 13.2929 28.2818 15.3638 30.2019C12.698 29.2172 10.4311 27.8354 8.72022 26.5856C6.60063 25.0375 5.01212 23.4718 4.10649 22.4995C5.01251 21.527 6.60083 19.9615 8.72022 18.4134C10.4311 17.1637 12.6981 15.7819 15.3638 14.7971L16.6711 16.2706C18.1978 14.841 20.2482 13.9642 22.4999 13.9642C27.2062 13.9642 31.0351 17.7931 31.0351 22.4995C31.0351 27.206 27.2062 31.0349 22.4999 31.0349ZM36.2795 26.5856C34.5684 27.8354 32.3016 29.2172 29.6359 30.2019C31.7067 28.2819 33.0053 25.5397 33.0053 22.4994C33.0053 19.4592 31.7067 16.7171 29.6359 14.797C32.3017 15.7818 34.5684 17.1636 36.2795 18.4133C38.3991 19.9615 39.9876 21.5272 40.8932 22.4993C39.9872 23.4721 38.3989 25.0377 36.2795 26.5856Z" fill="#fff"/><path d="M17.0683 20.8405C16.9081 21.3655 16.8213 21.9224 16.8213 22.4997C16.8213 25.6358 19.3636 28.1782 22.4997 28.1782C25.6358 28.1782 28.1781 25.6359 28.1781 22.4997C28.1781 19.3636 25.6358 16.8213 22.4997 16.8213C20.9722 16.8213 19.5866 17.4256 18.5659 18.4067L21.3669 21.5639L17.0683 20.8405Z" fill="#fff"/></svg>