<svg width="20" height="20" viewBox="0 0 20 20" fill="none" xmlns="http://www.w3.org/2000/svg"><g clip-path="url(#clip0)"><path d="M10 15.4425C7.75097 15.4425 5.33047 14.563 3.00018 12.8989C1.25817 11.6549 0.18297 10.4225 0.138042 10.3706C-0.0460139 10.1581 -0.0460139 9.8426 0.138042 9.63004C0.18297 9.57819 1.25812 8.34568 3.00018 7.10172C5.33051 5.43775 7.75102 4.55811 10 4.55811C12.249 4.55811 14.6696 5.43771 16.9998 7.10172C18.7418 8.34568 19.817 9.57815 19.862 9.63004C20.046 9.84256 20.046 10.158 19.862 10.3706C19.817 10.4224 18.7419 11.6549 16.9998 12.8989C14.6696 14.5629 12.2491 15.4425 10 15.4425ZM1.34096 10.0004C1.77577 10.4437 2.59637 11.2233 3.67985 11.9944C5.16523 13.0513 7.46747 14.3114 10 14.3114C12.5325 14.3114 14.8348 13.0513 16.3202 11.9944C17.4035 11.2235 18.2241 10.4438 18.659 10.0004C18.2243 9.55702 17.4036 8.77741 16.3202 8.00639C14.8348 6.94938 12.5325 5.68932 10 5.68932C7.46747 5.68932 5.16523 6.94938 3.67985 8.00639C2.59651 8.77727 1.77586 9.55688 1.34096 10.0004Z" fill="#000"/><path d="M9.99865 13.5066C8.06516 13.5066 6.49219 11.9336 6.49219 10.0001C6.49219 8.06668 8.06516 6.49365 9.99865 6.49365C10.849 6.49365 11.6693 6.80195 12.3083 7.36181C12.5433 7.56763 12.5669 7.92493 12.3611 8.15988C12.1552 8.39484 11.7979 8.41841 11.563 8.21264C11.1303 7.83353 10.5747 7.62477 9.9986 7.62477C8.68882 7.62477 7.62326 8.69038 7.62326 10.0001C7.62326 11.3099 8.68882 12.3755 9.9986 12.3755C11.3084 12.3755 12.374 11.3099 12.374 10.0001C12.374 9.6878 12.6272 9.43456 12.9395 9.43456C13.2518 9.43456 13.5051 9.6878 13.5051 10.0001C13.5052 11.9336 11.9321 13.5066 9.99865 13.5066Z" fill="#000"/><path d="M10.0022 11.1314C9.37851 11.1314 8.87109 10.624 8.87109 10.0003C8.87109 9.37656 9.37851 8.86914 10.0022 8.86914C10.626 8.86914 11.1333 9.37656 11.1333 10.0003C11.1333 10.624 10.626 11.1314 10.0022 11.1314Z" fill="#000"/><path stroke="#000" stroke-width="1.2" stroke-linecap="round" d="M17 2.849L2.849 17"/></g><defs><clipPath id="clip0"><path fill="#fff" d="M0 0H20V20H0z"/></clipPath></defs></svg>