<svg width="31" height="31" viewBox="0 0 31 31" fill="none" xmlns="http://www.w3.org/2000/svg"><path fill-rule="evenodd" clip-rule="evenodd" d="M23.0701 25.1914C23.6559 25.7772 24.6056 25.7772 25.1914 25.1914C25.7772 24.6056 25.7772 23.6559 25.1914 23.0701L18.4788 16.3575L25.0655 9.77085C25.6513 9.18506 25.6513 8.23532 25.0655 7.64953C24.4797 7.06374 23.53 7.06374 22.9442 7.64953L16.3575 14.2362L9.56066 7.43934C8.97487 6.85355 8.02513 6.85355 7.43934 7.43934C6.85355 8.02513 6.85355 8.97487 7.43934 9.56066L14.2362 16.3575L7.64971 22.944C7.06393 23.5298 7.06393 24.4795 7.64971 25.0653C8.2355 25.6511 9.18525 25.6511 9.77103 25.0653L16.3575 18.4788L23.0701 25.1914Z" fill="#000"/></svg>