<svg width="31" height="31" viewBox="0 0 31 31" fill="none" xmlns="http://www.w3.org/2000/svg"><path d="M21.2499 11.625C21.2499 6.86197 17.3881 3 12.625 3C7.86197 3 4 6.86197 4 11.625C4 16.388 7.86197 20.2498 12.625 20.2498C17.3881 20.2498 21.2499 16.388 21.2499 11.625ZM12.625 18.0935C9.05792 18.0935 6.15631 15.1921 6.15631 11.6251C6.15631 8.05797 9.05792 5.15636 12.625 5.15636C16.192 5.15636 19.0938 8.05797 19.0938 11.6251C19.0938 15.1921 16.192 18.0935 12.625 18.0935Z"/><path d="M26.367 22.3194L21.0904 17.0425C20.3042 18.2652 19.2637 19.3052 18.041 20.0914L23.318 25.3684C24.1604 26.2106 25.5263 26.2106 26.3669 25.3684C27.2094 24.5275 27.2094 23.1616 26.367 22.3194Z"/></svg>