<svg width="44" height="24" viewBox="0 0 44 24" fill="none" xmlns="http://www.w3.org/2000/svg"><path clip-rule="evenodd" d="M1.29289 21.0919C0.902369 21.4824 0.902369 22.1156 1.29289 22.5061C1.68342 22.8966 2.31658 22.8966 2.70711 22.5061L21.7987 3.41453L40.8904 22.5062C41.2809 22.8968 41.9141 22.8968 42.3046 22.5062C42.6951 22.1157 42.6951 21.4826 42.3046 21.092L22.527 1.31442C22.5202 1.30717 22.5132 1.29999 22.5061 1.29289C22.2337 1.02053 21.8434 0.938122 21.4996 1.04566C21.3502 1.09229 21.2097 1.17475 21.0914 1.29304C21.0863 1.29816 21.0812 1.30333 21.0762 1.30853L1.29289 21.0919Z"/><path d="M1.29289 22.5061L2 21.799L2 21.799L1.29289 22.5061ZM1.29289 21.0919L2 21.799L2 21.799L1.29289 21.0919ZM2.70711 22.5061L2 21.799L2 21.799L2.70711 22.5061ZM21.7987 3.41453L22.5058 2.70742L21.7987 2.00031L21.0916 2.70742L21.7987 3.41453ZM40.8904 22.5062L41.5975 21.7991V21.7991L40.8904 22.5062ZM42.3046 22.5062L41.5975 21.7991V21.7991L42.3046 22.5062ZM42.3046 21.092L41.5975 21.7991L42.3046 21.092ZM22.527 1.31442L21.7994 2.00038L21.8095 2.01111L21.8199 2.02153L22.527 1.31442ZM22.5061 1.29289L23.2132 0.585815L23.2132 0.585787L22.5061 1.29289ZM21.4996 1.04566L21.7976 2.00021L21.7981 2.00006L21.4996 1.04566ZM21.0914 1.29304L21.7985 2.00015L21.7985 2.00015L21.0914 1.29304ZM21.0762 1.30853L21.7834 2.01564L21.7908 2.00815L21.7982 2.00051L21.0762 1.30853ZM2 21.799L2 21.799L0.585787 20.3848C-0.195262 21.1658 -0.195262 22.4322 0.585787 23.2132L2 21.799ZM2 21.799H2L0.585785 23.2132C1.36683 23.9943 2.63317 23.9943 3.41421 23.2132L2 21.799ZM21.0916 2.70742L2 21.799L3.41421 23.2132L22.5058 4.12163L21.0916 2.70742ZM41.5975 21.7991L22.5058 2.70742L21.0916 4.12163L40.1833 23.2134L41.5975 21.7991ZM41.5975 21.7991H41.5975L40.1833 23.2134C40.9643 23.9944 42.2307 23.9944 43.0117 23.2134L41.5975 21.7991ZM41.5975 21.7991V21.7991L43.0117 23.2134C43.7928 22.4323 43.7928 21.166 43.0117 20.3849L41.5975 21.7991ZM21.8199 2.02153L41.5975 21.7991L43.0117 20.3849L23.2341 0.607311L21.8199 2.02153ZM21.799 1.99997C21.7992 2.00016 21.7993 2.0003 21.7994 2.00038L23.2546 0.628452C23.241 0.61403 23.2272 0.599817 23.2132 0.585815L21.799 1.99997ZM21.7981 2.00006L21.799 2L23.2132 0.585787C22.6675 0.0400675 21.8859 -0.122965 21.201 0.0912722L21.7981 2.00006ZM21.7985 2.00015L21.7976 2.00021L21.2015 0.0911233C20.9015 0.184798 20.6196 0.350611 20.3843 0.585935L21.7985 2.00015ZM21.7982 2.00051L21.7985 2.00015L20.3843 0.585934C20.3741 0.596136 20.3641 0.606346 20.3543 0.616553L21.7982 2.00051ZM2 21.799L21.7834 2.01564L20.3691 0.601423L0.585787 20.3848L2 21.799Z"/></svg>