<svg width="25" height="24" viewBox="0 0 25 24" fill="none" xmlns="http://www.w3.org/2000/svg">
<path d="M12.9616 0C6.3508 0 0.972656 5.38312 0.972656 12C0.972656 18.6169 6.3508 24 12.9616 24C19.5723 24 24.9505 18.6169 24.9505 12C24.9505 5.38312 19.5723 0 12.9616 0ZM12.2591 5.89014C11.1904 5.84418 10.1325 5.69385 9.12229 5.4494C9.28364 5.06671 9.45871 4.69922 9.6475 4.35095C10.4221 2.92236 11.373 1.91986 12.2591 1.55676V5.89014ZM12.2591 7.29749V11.2969H7.87137C7.9332 9.7359 8.19901 8.18628 8.63861 6.77673C9.80354 7.07043 11.0265 7.24823 12.2591 7.29749ZM12.2591 12.7031V16.7025C11.0265 16.7518 9.80354 16.9296 8.63861 17.2233C8.19901 15.8137 7.9332 14.2641 7.87137 12.7031H12.2591ZM12.2591 18.1099V22.4432C11.373 22.0801 10.4221 21.0776 9.6475 19.649C9.45871 19.3008 9.28364 18.9333 9.12229 18.5506C10.1325 18.3062 11.1902 18.1558 12.2591 18.1099ZM13.6641 18.1099C14.7328 18.1558 15.7907 18.3062 16.8009 18.5506C16.6395 18.9333 16.4644 19.3008 16.2757 19.649C15.5011 21.0776 14.5502 22.0801 13.6641 22.4432V18.1099ZM13.6641 16.7025V12.7031H18.0518C17.9899 14.2641 17.7241 15.8137 17.2845 17.2233C16.1196 16.9296 14.8967 16.7518 13.6641 16.7025ZM13.6641 11.2969V7.29749C14.8967 7.24823 16.1196 7.07043 17.2845 6.77673C17.7241 8.18628 17.9899 9.7359 18.0518 11.2969H13.6641ZM13.6641 5.89014V1.55676C14.5502 1.91986 15.5011 2.92236 16.2757 4.35095C16.4644 4.69922 16.6395 5.06671 16.8009 5.4494C15.7907 5.69385 14.7328 5.84418 13.6641 5.89014ZM17.5105 3.68024C17.1587 3.03131 16.7765 2.45929 16.3737 1.97131C17.7783 2.45142 19.0506 3.21954 20.1206 4.20465C19.5103 4.53186 18.8527 4.81604 18.1608 5.05353C17.9645 4.57635 17.7476 4.11731 17.5105 3.68024ZM8.41268 3.68024C8.17559 4.11731 7.95863 4.57635 7.76234 5.05353C7.07048 4.81604 6.41282 4.53168 5.80254 4.20465C6.87254 3.21954 8.14486 2.45142 9.54945 1.97131C9.14662 2.45929 8.76465 3.03113 8.41268 3.68024ZM7.28707 6.37518C6.8076 7.91052 6.52569 9.58429 6.46496 11.2969H2.40157C2.55195 9.01154 3.42876 6.92157 4.80371 5.25787C5.56674 5.69586 6.40239 6.0705 7.28707 6.37518ZM6.46496 12.7031C6.52569 14.4159 6.8076 16.0895 7.28707 17.6248C6.40239 17.9295 5.56674 18.3041 4.80371 18.7421C3.42876 17.0784 2.55195 14.9885 2.40157 12.7031H6.46496ZM7.76234 18.9465C7.95863 19.4236 8.17559 19.8827 8.41268 20.3198C8.76465 20.9687 9.14662 21.5407 9.54945 22.0287C8.14486 21.5486 6.87254 20.7805 5.80273 19.7953C6.41264 19.4683 7.07048 19.184 7.76234 18.9465ZM17.5105 20.3198C17.7476 19.8827 17.9645 19.4236 18.1608 18.9465C18.8527 19.184 19.5103 19.4683 20.1206 19.7953C19.0506 20.7805 17.7783 21.5486 16.3737 22.0287C16.7765 21.5407 17.1585 20.9689 17.5105 20.3198ZM18.6361 17.6248C19.1156 16.0895 19.3975 14.4157 19.4582 12.7031H23.5216C23.3712 14.9885 22.4944 17.0784 21.1194 18.7421C20.3564 18.3041 19.5208 17.9295 18.6361 17.6248ZM19.4582 11.2969C19.3975 9.58411 19.1156 7.91052 18.6361 6.37518C19.5208 6.0705 20.3564 5.69586 21.1194 5.25787C22.4944 6.92157 23.3712 9.01154 23.5216 11.2969H19.4582Z" fill="black"/>
</svg>
