<svg width="15" height="21" viewBox="0 0 15 21" fill="none" xmlns="http://www.w3.org/2000/svg">
<path fill-rule="evenodd" clip-rule="evenodd" d="M9.95771 16.7137C11.7307 13.7703 13.9716 9.63242 13.9716 7.50547C13.9716 3.91758 11.0567 1 7.47212 1C3.88754 1 0.972656 3.91758 0.972656 7.50547C0.972656 9.63242 3.21355 13.7703 4.98652 16.7137L5.51455 17.5688C6.36884 18.948 7.01707 19.9234 7.10293 20.0395C7.21884 20.1941 7.55798 20.3789 7.8456 20.0395C7.93575 19.932 8.57969 18.948 9.43398 17.5688L9.95771 16.7137ZM7.47212 1.89375C4.38552 1.89375 1.86987 4.41172 1.86987 7.50547C1.86987 10.2082 6.16707 16.9887 7.47212 18.9824C8.77716 16.9887 13.0787 10.2082 13.0787 7.50547C13.0787 4.41172 10.563 1.89375 7.47212 1.89375Z" fill="black" stroke="black" stroke-width="0.5"/>
<path d="M10.3006 7.50547C10.3006 5.94141 9.03422 4.67383 7.4716 4.67383C5.90899 4.67383 4.64258 5.94141 4.64258 7.50547C4.64258 9.06953 5.90899 10.3371 7.4716 10.3371C9.03422 10.3371 10.3006 9.06953 10.3006 7.50547ZM5.5355 7.50547C5.5355 6.43555 6.40267 5.56758 7.4716 5.56758C8.54054 5.56758 9.40771 6.43555 9.40771 7.50547C9.40771 8.57539 8.54054 9.44336 7.4716 9.44336C6.40267 9.44336 5.5355 8.57539 5.5355 7.50547Z" fill="#231F20" stroke="black" stroke-width="0.5"/>
</svg>
