<svg width="428" height="410" viewBox="0 0 428 410" fill="none" xmlns="http://www.w3.org/2000/svg">
<path d="M223.864 21.8801L269.736 114.827C275.708 126.928 287.252 135.315 300.606 137.256L403.179 152.16C412.202 153.471 415.804 164.559 409.276 170.923L335.053 243.272C325.39 252.691 320.981 266.262 323.262 279.562L340.783 381.72C342.325 390.706 332.893 397.559 324.823 393.316L233.079 345.084C221.135 338.804 206.865 338.804 194.921 345.084L103.177 393.316C95.1072 397.559 85.6755 390.706 87.2167 381.72L104.738 279.562C107.019 266.262 102.61 252.691 92.9467 243.272L18.7244 170.923C12.1957 164.559 15.7983 153.471 24.8207 152.16L127.394 137.256C140.748 135.315 152.292 126.928 158.264 114.827L204.136 21.8801C208.171 13.7044 219.829 13.7044 223.864 21.8801Z" stroke="#3465E2" stroke-width="30"/>
</svg>
